<svg xmlns="http://www.w3.org/2000/svg" viewBox="0 0 48 48">
  <circle cx="24" cy="24" r="24" fill="#25D366" />
  <path fill="#FFFFFF" d="M33.6 27.8c-.3-.2-2-1-2.3-1.1-.3-.1-.5-.2-.7.2-.2.3-.9 1.1-1.1 1.3-.2.2-.4.3-.8.1-.3-.2-1.4-.5-2.7-1.6-1-.8-1.7-1.9-1.9-2.3-.2-.4 0-.5.2-.8.1-.1.3-.4.5-.6.2-.2.2-.3.3-.6.1-.2 0-.4 0-.6 0-.1-.7-1.9-1.1-2.6-.3-.7-.6-.6-.8-.6h-1.3c-.3 0-.7.1-1 .4-.3.3-1.3 1.3-1.3 3.1 0 1.8 1.3 3.6 1.5 3.9.2.2 2.6 4.1 6.2 5.6.9.3 1.5.5 2.1.6.9.2 1.7.2 2.2.1.7-.1 2-.9 2.3-1.7.3-.8.3-1.6.2-1.8-.1-.2-.3-.3-.6-.5z"/>
</svg>